<svg width="140" height="79" viewBox="0 0 355 79" fill="none" xmlns="http://www.w3.org/2000/svg">
<path d="M43.5103 15.7273V63H35.8931L13.6186 30.8001H13.2262V63H4.66264V15.7273H12.326L34.5774 47.9503H34.9929V15.7273H43.5103ZM68.1681 63.6925C64.6134 63.6925 61.5434 62.9538 58.9582 61.4766C56.3883 59.9839 54.411 57.8757 53.026 55.152C51.6411 52.4129 50.9486 49.189 50.9486 45.4805C50.9486 41.8335 51.6411 38.6327 53.026 35.8782C54.4263 33.1083 56.3807 30.954 58.8889 29.4151C61.3972 27.8609 64.3441 27.0838 67.7295 27.0838C69.9146 27.0838 71.9767 27.4377 73.9156 28.1456C75.8699 28.8381 77.5934 29.9152 79.086 31.3771C80.5941 32.839 81.779 34.701 82.6407 36.9631C83.5025 39.2098 83.9333 41.8873 83.9333 44.9957V47.5579H54.8726V41.9258H75.9237C75.9084 40.3254 75.5621 38.902 74.885 37.6555C74.208 36.3937 73.2616 35.4012 72.0459 34.6779C70.8456 33.9547 69.4453 33.593 67.8449 33.593C66.1368 33.593 64.6365 34.0085 63.3438 34.8395C62.0512 35.6551 61.0433 36.7322 60.32 38.071C59.6122 39.3944 59.2506 40.8486 59.2352 42.4336V47.3501C59.2352 49.4122 59.6122 51.1818 60.3662 52.6591C61.1202 54.121 62.1743 55.2443 63.5285 56.0291C64.8827 56.7985 66.4677 57.1832 68.2835 57.1832C69.4991 57.1832 70.5994 57.014 71.5843 56.6754C72.5691 56.3215 73.4231 55.806 74.1464 55.1289C74.8696 54.4518 75.4159 53.6132 75.7852 52.6129L83.5871 53.4901C83.0947 55.5521 82.156 57.3525 80.771 58.8913C79.4015 60.4148 77.6472 61.5997 75.5083 62.446C73.3693 63.277 70.9226 63.6925 68.1681 63.6925ZM91.0023 76.2955V27.5455H99.2196V33.4084H99.7044C100.135 32.5466 100.743 31.631 101.528 30.6616C102.313 29.6767 103.374 28.8381 104.713 28.1456C106.052 27.4377 107.76 27.0838 109.838 27.0838C112.577 27.0838 115.046 27.784 117.247 29.1843C119.463 30.5692 121.217 32.6236 122.51 35.3473C123.818 38.0556 124.472 41.3795 124.472 45.3189C124.472 49.2121 123.833 52.5206 122.556 55.2443C121.279 57.968 119.54 60.0455 117.339 61.4766C115.139 62.9077 112.646 63.6232 109.861 63.6232C107.829 63.6232 106.144 63.2847 104.806 62.6076C103.467 61.9305 102.39 61.1149 101.574 60.1609C100.774 59.1914 100.151 58.2758 99.7044 57.4141H99.3581V76.2955H91.0023ZM99.1966 45.2727C99.1966 47.5656 99.5197 49.5737 100.166 51.2972C100.828 53.0207 101.774 54.3672 103.005 55.3366C104.252 56.2907 105.76 56.7678 107.529 56.7678C109.376 56.7678 110.922 56.2753 112.169 55.2905C113.415 54.2902 114.354 52.9284 114.985 51.2049C115.631 49.466 115.954 47.4886 115.954 45.2727C115.954 43.0722 115.639 41.1179 115.008 39.4098C114.377 37.7017 113.438 36.3629 112.192 35.3935C110.945 34.424 109.391 33.9393 107.529 33.9393C105.744 33.9393 104.229 34.4086 102.982 35.3473C101.736 36.286 100.789 37.6017 100.143 39.2944C99.512 40.9871 99.1966 42.9799 99.1966 45.2727ZM141.83 63.7156C139.583 63.7156 137.559 63.3155 135.759 62.5153C133.974 61.6997 132.558 60.4994 131.512 58.9144C130.481 57.3294 129.965 55.3751 129.965 53.0515C129.965 51.051 130.335 49.3968 131.073 48.0888C131.812 46.7808 132.82 45.7344 134.097 44.9496C135.374 44.1648 136.813 43.5723 138.414 43.1722C140.029 42.7567 141.699 42.4567 143.422 42.272C145.5 42.0566 147.185 41.8642 148.477 41.695C149.77 41.5103 150.709 41.2333 151.294 40.864C151.894 40.4793 152.194 39.8868 152.194 39.0866V38.9482C152.194 37.2093 151.678 35.8628 150.647 34.9087C149.616 33.9547 148.131 33.4776 146.192 33.4776C144.146 33.4776 142.522 33.9239 141.322 34.8164C140.137 35.7089 139.337 36.763 138.921 37.9787L131.119 36.8707C131.735 34.7164 132.751 32.916 134.166 31.4695C135.582 30.0076 137.313 28.915 139.36 28.1918C141.407 27.4531 143.669 27.0838 146.146 27.0838C147.854 27.0838 149.555 27.2839 151.247 27.6839C152.94 28.084 154.487 28.7457 155.887 29.669C157.287 30.5769 158.411 31.8157 159.257 33.3853C160.119 34.9549 160.55 36.9169 160.55 39.2713V63H152.517V58.1296H152.24C151.732 59.1145 151.017 60.0378 150.093 60.8995C149.185 61.7459 148.039 62.4306 146.654 62.9538C145.284 63.4616 143.676 63.7156 141.83 63.7156ZM143.999 57.5756C145.677 57.5756 147.131 57.2448 148.362 56.5831C149.593 55.906 150.539 55.0135 151.201 53.9055C151.878 52.7976 152.217 51.5896 152.217 50.2816V46.1037C151.955 46.3191 151.509 46.5192 150.878 46.7038C150.262 46.8885 149.57 47.0501 148.801 47.1886C148.031 47.3271 147.269 47.4502 146.515 47.5579C145.761 47.6656 145.107 47.7579 144.553 47.8349C143.307 48.0041 142.191 48.2811 141.206 48.6658C140.222 49.0505 139.445 49.5891 138.875 50.2816C138.306 50.9587 138.021 51.8358 138.021 52.913C138.021 54.4518 138.583 55.6136 139.706 56.3984C140.829 57.1832 142.261 57.5756 143.999 57.5756ZM177.307 15.7273V63H168.952V15.7273H177.307ZM185.9 63V27.5455H194.256V63H185.9ZM190.101 22.5135C188.777 22.5135 187.639 22.0749 186.685 21.1978C185.73 20.3053 185.253 19.2358 185.253 17.9893C185.253 16.7275 185.73 15.658 186.685 14.7809C187.639 13.8884 188.777 13.4421 190.101 13.4421C191.44 13.4421 192.578 13.8884 193.517 14.7809C194.471 15.658 194.948 16.7275 194.948 17.9893C194.948 19.2358 194.471 20.3053 193.517 21.1978C192.578 22.0749 191.44 22.5135 190.101 22.5135Z" fill="white"/>
<path d="M235.452 27.5455V32.1619H216.34V27.5455H235.452ZM222.064 63V22.652C222.064 20.6207 222.541 18.928 223.495 17.5739C224.449 16.2197 225.688 15.2041 227.211 14.527C228.735 13.8499 230.343 13.5114 232.036 13.5114C233.374 13.5114 234.467 13.6191 235.313 13.8345C236.16 14.05 236.791 14.25 237.206 14.4347L235.637 19.1435C235.36 19.0511 234.975 18.9357 234.482 18.7972C234.005 18.6587 233.374 18.5895 232.59 18.5895C230.789 18.5895 229.489 19.0434 228.689 19.9513C227.904 20.8593 227.512 22.1903 227.512 23.9446V63H222.064ZM256.03 63.7386C252.829 63.7386 250.021 62.9769 247.605 61.4535C245.204 59.93 243.327 57.7988 241.973 55.0597C240.634 52.3205 239.964 49.1198 239.964 45.4574C239.964 41.7642 240.634 38.5404 241.973 35.7859C243.327 33.0314 245.204 30.8924 247.605 29.369C250.021 27.8455 252.829 27.0838 256.03 27.0838C259.231 27.0838 262.031 27.8455 264.432 29.369C266.848 30.8924 268.725 33.0314 270.064 35.7859C271.418 38.5404 272.095 41.7642 272.095 45.4574C272.095 49.1198 271.418 52.3205 270.064 55.0597C268.725 57.7988 266.848 59.93 264.432 61.4535C262.031 62.9769 259.231 63.7386 256.03 63.7386ZM256.03 58.8452C258.461 58.8452 260.462 58.2219 262.031 56.9755C263.601 55.729 264.763 54.0902 265.517 52.0589C266.271 50.0277 266.648 47.8272 266.648 45.4574C266.648 43.0876 266.271 40.8794 265.517 38.8327C264.763 36.7861 263.601 35.1319 262.031 33.87C260.462 32.6082 258.461 31.9773 256.03 31.9773C253.598 31.9773 251.598 32.6082 250.028 33.87C248.459 35.1319 247.297 36.7861 246.543 38.8327C245.789 40.8794 245.412 43.0876 245.412 45.4574C245.412 47.8272 245.789 50.0277 246.543 52.0589C247.297 54.0902 248.459 55.729 250.028 56.9755C251.598 58.2219 253.598 58.8452 256.03 58.8452ZM294.814 63.7386C291.613 63.7386 288.805 62.9769 286.389 61.4535C283.988 59.93 282.111 57.7988 280.757 55.0597C279.418 52.3205 278.749 49.1198 278.749 45.4574C278.749 41.7642 279.418 38.5404 280.757 35.7859C282.111 33.0314 283.988 30.8924 286.389 29.369C288.805 27.8455 291.613 27.0838 294.814 27.0838C298.015 27.0838 300.815 27.8455 303.216 29.369C305.632 30.8924 307.509 33.0314 308.848 35.7859C310.202 38.5404 310.879 41.7642 310.879 45.4574C310.879 49.1198 310.202 52.3205 308.848 55.0597C307.509 57.7988 305.632 59.93 303.216 61.4535C300.815 62.9769 298.015 63.7386 294.814 63.7386ZM294.814 58.8452C297.245 58.8452 299.246 58.2219 300.815 56.9755C302.385 55.729 303.547 54.0902 304.301 52.0589C305.055 50.0277 305.432 47.8272 305.432 45.4574C305.432 43.0876 305.055 40.8794 304.301 38.8327C303.547 36.7861 302.385 35.1319 300.815 33.87C299.246 32.6082 297.245 31.9773 294.814 31.9773C292.383 31.9773 290.382 32.6082 288.813 33.87C287.243 35.1319 286.081 36.7861 285.327 38.8327C284.573 40.8794 284.196 43.0876 284.196 45.4574C284.196 47.8272 284.573 50.0277 285.327 52.0589C286.081 54.0902 287.243 55.729 288.813 56.9755C290.382 58.2219 292.383 58.8452 294.814 58.8452ZM332.583 63.7386C329.628 63.7386 327.02 62.9923 324.758 61.4996C322.496 59.9916 320.726 57.868 319.449 55.1289C318.171 52.3744 317.533 49.1198 317.533 45.3651C317.533 41.6411 318.171 38.4096 319.449 35.6705C320.726 32.9313 322.503 30.8155 324.781 29.3228C327.058 27.8301 329.69 27.0838 332.675 27.0838C334.983 27.0838 336.807 27.4685 338.145 28.2379C339.5 28.992 340.531 29.8537 341.238 30.8232C341.962 31.7772 342.523 32.562 342.923 33.1776H343.385V15.7273H348.833V63H343.57V57.5526H342.923C342.523 58.1989 341.954 59.0144 341.215 59.9993C340.477 60.9687 339.423 61.8382 338.053 62.6076C336.684 63.3616 334.86 63.7386 332.583 63.7386ZM333.321 58.8452C335.506 58.8452 337.353 58.2758 338.861 57.1371C340.369 55.983 341.515 54.3903 342.3 52.359C343.085 50.3124 343.477 47.9503 343.477 45.2727C343.477 42.6259 343.093 40.31 342.323 38.3249C341.554 36.3245 340.415 34.7702 338.907 33.6623C337.399 32.5389 335.537 31.9773 333.321 31.9773C331.013 31.9773 329.089 32.5697 327.551 33.7546C326.027 34.9241 324.881 36.5168 324.111 38.5327C323.357 40.5331 322.98 42.7798 322.98 45.2727C322.98 47.7964 323.365 50.0893 324.134 52.1513C324.919 54.1979 326.073 55.8291 327.597 57.0447C329.136 58.245 331.044 58.8452 333.321 58.8452Z" fill="#D76024"/>
</svg>
